<svg id="Capa_1" enable-background="new 0 0 512 512" height="512" viewBox="0 0 512 512" width="512" xmlns="http://www.w3.org/2000/svg">
  <g>
    <path d="m240.415 478.016v-99.878c-23.444 1.564-46.309 6.762-68.037 15.35 17.446 32.563 40.634 61.7 68.037 84.528z"/>
    <path d="m159.408 366.118c25.775-10.418 53.023-16.616 81.007-18.256v-76.726h-103.144c1.854 32.401 9.584 64.723 22.137 94.982z"/>
    <path d="m137.273 240.926h103.142v-77.256c-27.878-1.635-55.024-7.793-80.713-18.139-12.72 30.38-20.557 62.854-22.429 95.395z"/>
    <path d="m172.768 118.2c21.611 8.496 44.344 13.638 67.647 15.194v-98.876c-27.2 22.643-50.247 51.475-67.647 83.682z"/>
    <path d="m340.277 394.149c-22.221-8.982-45.651-14.406-69.691-16.012v101.531c28.092-22.915 51.859-52.431 69.691-85.519z"/>
    <path d="m380.41 379.873c23.255 12.883 44.936 29.429 64.395 49.387 39.989-43.727 63.295-99.037 66.695-158.123h-105.544c-1.931 37.1-10.883 74.162-25.546 108.736z"/>
    <path d="m375.74 271.137h-105.154v76.726c28.607 1.678 56.449 8.102 82.73 18.942 12.722-30.456 20.557-63.022 22.424-95.668z"/>
    <path d="m366.997 104.538c20.142-11.306 38.957-25.729 55.912-43.057-40.967-35.455-91.411-56.708-145.286-61.287 36.49 26.607 67.147 62.994 89.374 104.344z"/>
    <path d="m145.195 406.33c-20.702 11.463-40.023 26.206-57.384 44.003 41.406 35.94 92.526 57.355 147.103 61.667-36.731-26.914-67.521-63.788-89.719-105.67z"/>
    <path d="m107.056 271.137h-106.556c3.4 59.087 25.706 114.397 65.696 158.124 19.913-20.426 42.15-37.287 66.026-50.295-14.436-34.315-23.253-71.052-25.166-107.829z"/>
    <path d="m132.501 132.722c-23.88-12.973-46.127-29.799-66.054-50.188-40.142 43.767-62.54 99.184-65.947 158.392h106.559c1.929-36.905 10.845-73.781 25.442-108.204z"/>
    <path d="m367.36 407.197c-22.108 41.426-52.64 77.896-89.004 104.608 53.724-4.721 104.001-26.031 144.833-61.473-16.924-17.351-35.712-31.799-55.829-43.135z"/>
    <path d="m405.953 240.926h105.547c-3.407-59.208-26.805-114.626-66.947-158.394-19.473 19.922-41.162 36.434-64.423 49.282 14.826 34.683 23.876 71.883 25.823 109.112z"/>
    <path d="m353.022 144.844c-26.195 10.77-53.936 17.155-82.436 18.826v77.256h105.152c-1.886-32.787-9.827-65.505-22.716-96.082z"/>
    <path d="m270.586 32.865v100.529c23.9-1.596 47.197-6.968 69.301-15.855-17.787-32.73-41.414-61.941-69.301-84.674z"/>
    <path d="m145.551 105.4c22.317-41.805 53.238-78.591 90.097-105.4-54.73 4.168-106.015 25.527-147.558 61.481 17.389 17.774 36.734 32.49 57.461 43.919z"/>
  </g>
</svg>